<svg width="220" height="220" viewBox="0 0 220 220" fill="none" xmlns="http://www.w3.org/2000/svg">
<circle cx="110" cy="110" r="55" fill="white"/>
<path d="M106 4.5C106 2.01472 108.015 0 110.5 0V0C112.985 0 115 2.01472 115 4.5V105.5C115 107.985 112.985 110 110.5 110V110C108.015 110 106 107.985 106 105.5V4.5Z" fill="white"/>
<path d="M106 114.5C106 112.015 108.015 110 110.5 110V110C112.985 110 115 112.015 115 114.5V215.5C115 217.985 112.985 220 110.5 220V220C108.015 220 106 217.985 106 215.5V114.5Z" fill="white"/>
<path d="M4.5 114C2.01472 114 0 111.985 0 109.5V109.5C0 107.015 2.01472 105 4.5 105H105.5C107.985 105 110 107.015 110 109.5V109.5C110 111.985 107.985 114 105.5 114H4.5Z" fill="white"/>
<path d="M114.5 114C112.015 114 110 111.985 110 109.5V109.5C110 107.015 112.015 105 114.5 105H215.5C217.985 105 220 107.015 220 109.5V109.5C220 111.985 217.985 114 215.5 114H114.5Z" fill="white"/>
<path d="M113.182 113.546C111.425 111.789 111.425 108.939 113.182 107.182V107.182C114.939 105.425 117.789 105.425 119.546 107.182L190.964 178.6C192.721 180.357 192.721 183.206 190.964 184.964V184.964C189.206 186.721 186.357 186.721 184.6 184.964L113.182 113.546Z" fill="white"/>
<path d="M35.182 35.5459C33.4246 33.7886 33.4246 30.9393 35.182 29.182V29.182C36.9393 27.4246 39.7886 27.4246 41.5459 29.182L112.964 100.6C114.721 102.357 114.721 105.206 112.964 106.964V106.964C111.206 108.721 108.357 108.721 106.6 106.964L35.182 35.5459Z" fill="white"/>
<path d="M184.6 29.182C186.357 27.4246 189.206 27.4246 190.964 29.182V29.182C192.721 30.9393 192.721 33.7886 190.964 35.5459L119.546 106.964C117.789 108.721 114.939 108.721 113.182 106.964V106.964C111.425 105.206 111.425 102.357 113.182 100.6L184.6 29.182Z" fill="white"/>
<path d="M100.6 113.182C102.357 111.425 105.206 111.425 106.964 113.182V113.182C108.721 114.939 108.721 117.789 106.964 119.546L35.5459 190.964C33.7886 192.721 30.9393 192.721 29.182 190.964V190.964C27.4246 189.206 27.4246 186.357 29.182 184.6L100.6 113.182Z" fill="white"/>
</svg>
